<svg xmlns="http://www.w3.org/2000/svg" viewBox="0 0 1600 800" preserveAspectRatio="xMidYMid slice" aria-hidden="true">
  <g fill="none" stroke="#d49464" stroke-width="1" stroke-linecap="round" stroke-linejoin="round" opacity="0.55">
    <path d="M -50 120 C 200 90, 380 160, 560 130 S 940 80, 1140 140 1420 160, 1660 120"/>
    <path d="M -50 200 C 220 170, 400 240, 600 210 S 980 160, 1180 220 1440 240, 1660 200"/>
    <path d="M -50 290 C 180 250, 360 320, 540 290 S 920 220, 1120 300 1400 320, 1660 280"/>
    <path d="M -50 380 C 240 340, 440 410, 640 380 S 1020 330, 1220 400 1480 420, 1660 390"/>
    <path d="M -50 470 C 200 430, 380 510, 580 480 S 960 400, 1160 490 1420 510, 1660 470"/>
    <path d="M -50 560 C 230 520, 410 600, 620 570 S 1000 490, 1200 580 1460 600, 1660 560"/>
    <path d="M -50 650 C 190 610, 370 690, 550 660 S 940 580, 1140 670 1420 690, 1660 650"/>
    <path d="M -50 740 C 220 700, 400 780, 600 750 S 980 670, 1180 760 1440 780, 1660 740"/>
  </g>
  <g fill="none" stroke="#d49464" stroke-width="0.7" stroke-linecap="round" stroke-linejoin="round" opacity="0.35">
    <path d="M -50 160 C 220 130, 400 200, 580 170 S 960 120, 1160 180 1420 200, 1660 160"/>
    <path d="M -50 245 C 210 210, 390 280, 580 250 S 960 200, 1160 260 1420 280, 1660 245"/>
    <path d="M -50 335 C 220 300, 400 370, 580 340 S 960 290, 1160 350 1420 370, 1660 335"/>
    <path d="M -50 425 C 210 390, 390 460, 580 430 S 960 380, 1160 440 1420 460, 1660 425"/>
    <path d="M -50 515 C 220 480, 400 550, 580 520 S 960 470, 1160 530 1420 550, 1660 515"/>
    <path d="M -50 605 C 210 570, 390 640, 580 610 S 960 560, 1160 620 1420 640, 1660 605"/>
    <path d="M -50 695 C 220 660, 400 730, 580 700 S 960 650, 1160 710 1420 730, 1660 695"/>
  </g>
</svg>
